<mxfile host="app.diagrams.net" modified="2021-04-07T12:08:54.847Z" agent="5.0 (Windows NT 10.0; Win64; x64) AppleWebKit/537.36 (KHTML, like Gecko) Chrome/89.0.4389.114 Safari/537.36 Edg/89.0.774.68" etag="WV4pHDWBpqIsPtI26kCd" version="14.5.8" type="github">
  <diagram id="C5RBs43oDa-KdzZeNtuy" name="Page-1">
    <mxGraphModel dx="1165" dy="645" grid="1" gridSize="10" guides="1" tooltips="1" connect="1" arrows="1" fold="1" page="1" pageScale="1" pageWidth="827" pageHeight="1169" math="0" shadow="0">
      <root>
        <mxCell id="WIyWlLk6GJQsqaUBKTNV-0" />
        <mxCell id="WIyWlLk6GJQsqaUBKTNV-1" parent="WIyWlLk6GJQsqaUBKTNV-0" />
        <mxCell id="XLCLOh3F5A6T6URXvK6H-4" style="edgeStyle=orthogonalEdgeStyle;rounded=0;orthogonalLoop=1;jettySize=auto;html=1;shadow=1;sketch=1;strokeWidth=3;" edge="1" parent="WIyWlLk6GJQsqaUBKTNV-1" source="XLCLOh3F5A6T6URXvK6H-1" target="XLCLOh3F5A6T6URXvK6H-3">
          <mxGeometry relative="1" as="geometry" />
        </mxCell>
        <mxCell id="XLCLOh3F5A6T6URXvK6H-5" value="&lt;font style=&quot;font-size: 16px&quot;&gt;酒席订单信息&lt;/font&gt;" style="edgeLabel;html=1;align=center;verticalAlign=middle;resizable=0;points=[];" vertex="1" connectable="0" parent="XLCLOh3F5A6T6URXvK6H-4">
          <mxGeometry x="-0.2478" y="-1" relative="1" as="geometry">
            <mxPoint as="offset" />
          </mxGeometry>
        </mxCell>
        <mxCell id="XLCLOh3F5A6T6URXvK6H-1" value="&lt;font style=&quot;font-size: 18px&quot;&gt;顾客&lt;/font&gt;" style="html=1;dashed=0;whitespace=wrap;shape=mxgraph.dfd.externalEntity;sketch=1;shadow=1;" vertex="1" parent="WIyWlLk6GJQsqaUBKTNV-1">
          <mxGeometry x="60" y="230" width="100" height="100" as="geometry" />
        </mxCell>
        <mxCell id="XLCLOh3F5A6T6URXvK6H-2" value="1" style="autosize=1;part=1;resizable=0;strokeColor=inherit;fillColor=inherit;gradientColor=inherit;" vertex="1" parent="XLCLOh3F5A6T6URXvK6H-1">
          <mxGeometry width="20" height="20" relative="1" as="geometry">
            <mxPoint x="15" y="15" as="offset" />
          </mxGeometry>
        </mxCell>
        <mxCell id="XLCLOh3F5A6T6URXvK6H-8" style="edgeStyle=orthogonalEdgeStyle;rounded=0;sketch=1;orthogonalLoop=1;jettySize=auto;html=1;entryX=0;entryY=0.5;entryDx=0;entryDy=0;shadow=1;strokeWidth=3;" edge="1" parent="WIyWlLk6GJQsqaUBKTNV-1" source="XLCLOh3F5A6T6URXvK6H-3" target="XLCLOh3F5A6T6URXvK6H-7">
          <mxGeometry relative="1" as="geometry" />
        </mxCell>
        <mxCell id="XLCLOh3F5A6T6URXvK6H-9" value="&lt;font style=&quot;font-size: 16px&quot;&gt;新订单信息&lt;/font&gt;" style="edgeLabel;html=1;align=center;verticalAlign=middle;resizable=0;points=[];" vertex="1" connectable="0" parent="XLCLOh3F5A6T6URXvK6H-8">
          <mxGeometry x="-0.2716" y="-1" relative="1" as="geometry">
            <mxPoint as="offset" />
          </mxGeometry>
        </mxCell>
        <mxCell id="XLCLOh3F5A6T6URXvK6H-11" style="edgeStyle=orthogonalEdgeStyle;rounded=0;sketch=1;orthogonalLoop=1;jettySize=auto;html=1;entryX=0.5;entryY=1;entryDx=0;entryDy=0;shadow=1;strokeWidth=3;" edge="1" parent="WIyWlLk6GJQsqaUBKTNV-1" source="XLCLOh3F5A6T6URXvK6H-3" target="XLCLOh3F5A6T6URXvK6H-10">
          <mxGeometry relative="1" as="geometry" />
        </mxCell>
        <mxCell id="XLCLOh3F5A6T6URXvK6H-12" value="&lt;font style=&quot;font-size: 16px&quot;&gt;订单更改信息&lt;/font&gt;" style="edgeLabel;html=1;align=center;verticalAlign=middle;resizable=0;points=[];" vertex="1" connectable="0" parent="XLCLOh3F5A6T6URXvK6H-11">
          <mxGeometry x="-0.2433" relative="1" as="geometry">
            <mxPoint as="offset" />
          </mxGeometry>
        </mxCell>
        <mxCell id="XLCLOh3F5A6T6URXvK6H-3" value="&lt;b style=&quot;font-size: 16px&quot;&gt;&lt;font style=&quot;font-size: 16px&quot;&gt;Process-1.1&lt;/font&gt;&lt;/b&gt;&lt;hr style=&quot;font-size: 16px&quot;&gt;&lt;b style=&quot;font-size: 16px&quot;&gt;&lt;font style=&quot;font-size: 16px&quot;&gt;区分新订单&lt;br&gt;与订单更改&lt;/font&gt;&lt;/b&gt;" style="html=1;dashed=0;whitespace=wrap;fillColor=#d5e8d4;rounded=1;sketch=1;shadow=1;strokeWidth=2;" vertex="1" parent="WIyWlLk6GJQsqaUBKTNV-1">
          <mxGeometry x="330" y="235" width="130" height="85" as="geometry" />
        </mxCell>
        <mxCell id="XLCLOh3F5A6T6URXvK6H-7" value="&lt;span style=&quot;font-size: 16px&quot;&gt;&lt;font style=&quot;font-size: 16px&quot;&gt;&lt;b&gt;Process-1.2&lt;/b&gt;&lt;/font&gt;&lt;/span&gt;&lt;hr style=&quot;font-size: 16px&quot;&gt;&lt;span style=&quot;font-size: 16px&quot;&gt;&lt;font style=&quot;font-size: 16px&quot;&gt;&lt;b&gt;区分新客户&lt;br&gt;与老客户&lt;/b&gt;&lt;/font&gt;&lt;/span&gt;" style="html=1;dashed=0;whitespace=wrap;rounded=1;shadow=1;sketch=1;strokeWidth=2;fillColor=#d5e8d4;" vertex="1" parent="WIyWlLk6GJQsqaUBKTNV-1">
          <mxGeometry x="620" y="242.5" width="140" height="87.5" as="geometry" />
        </mxCell>
        <mxCell id="XLCLOh3F5A6T6URXvK6H-10" value="&lt;b style=&quot;font-size: 16px&quot;&gt;&lt;font style=&quot;font-size: 16px&quot;&gt;Process-1.3&lt;/font&gt;&lt;/b&gt;&lt;hr style=&quot;font-size: 16px&quot;&gt;&lt;b style=&quot;font-size: 16px&quot;&gt;&lt;font style=&quot;font-size: 16px&quot;&gt;订单更改&lt;/font&gt;&lt;/b&gt;" style="html=1;dashed=0;whitespace=wrap;rounded=1;shadow=1;sketch=1;strokeWidth=2;fillColor=#d5e8d4;" vertex="1" parent="WIyWlLk6GJQsqaUBKTNV-1">
          <mxGeometry x="335" y="20" width="120" height="90" as="geometry" />
        </mxCell>
      </root>
    </mxGraphModel>
  </diagram>
</mxfile>
